<svg width="32" height="32" viewBox="0 0 32 32" fill="none" xmlns="http://www.w3.org/2000/svg">
<path fill-rule="evenodd" clip-rule="evenodd" d="M5.33316 14.0801C6.81827 14.1203 7.99984 15.2546 7.99984 16.6401C7.99984 18.0256 6.81827 19.1599 5.33316 19.2001C3.84807 19.1599 2.6665 18.0256 2.6665 16.6401C2.6665 15.2546 3.84807 14.1203 5.33316 14.0801Z" stroke="#7332D6" stroke-width="1.2" stroke-linecap="round" stroke-linejoin="round"/>
<path fill-rule="evenodd" clip-rule="evenodd" d="M26.7204 19.1996C25.637 19.2204 24.648 18.61 24.2186 17.655C23.789 16.7 24.0041 15.5903 24.7627 14.8477C25.5214 14.1051 26.6727 13.8768 27.6757 14.2706C28.6788 14.6644 29.3339 15.6015 29.3332 16.6418C29.3469 18.0404 28.1773 19.1854 26.7204 19.1996Z" stroke="#7332D6" stroke-width="1.2" stroke-linecap="round" stroke-linejoin="round"/>
<path fill-rule="evenodd" clip-rule="evenodd" d="M13.334 26.9319C13.3121 25.8918 13.9482 24.9426 14.943 24.5302C15.9378 24.1177 17.0935 24.3243 17.8673 25.0527C18.6409 25.7809 18.8784 26.8863 18.4685 27.8492C18.0583 28.8119 17.0821 29.4408 15.9984 29.4402C14.5413 29.4533 13.3488 28.3307 13.334 26.9319Z" stroke="#7332D6" stroke-width="1.2" stroke-linecap="round" stroke-linejoin="round"/>
<path fill-rule="evenodd" clip-rule="evenodd" d="M18.6668 6.39983C18.6249 7.82554 17.4434 8.95984 16.0002 8.95984C14.5567 8.95984 13.3752 7.82554 13.3335 6.39983C13.3752 4.97415 14.5567 3.83984 16.0002 3.83984C17.4434 3.83984 18.6249 4.97415 18.6668 6.39983Z" stroke="#7332D6" stroke-width="1.2" stroke-linecap="round" stroke-linejoin="round"/>
<path fill-rule="evenodd" clip-rule="evenodd" d="M18.6668 16.6401C18.6668 18.0538 17.4728 19.2001 16.0002 19.2001C14.5273 19.2001 13.3335 18.0538 13.3335 16.6401C13.3335 15.2262 14.5273 14.0801 16.0002 14.0801C17.4728 14.0801 18.6668 15.2262 18.6668 16.6401Z" stroke="#7332D6" stroke-width="1.2" stroke-linecap="round" stroke-linejoin="round"/>
<path d="M6.71116 14.7282C6.54327 15.2684 6.86336 15.8371 7.42609 15.9982C7.98884 16.1594 8.58114 15.8521 8.74903 15.3119L6.71116 14.7282ZM9.98131 13.0394C10.346 12.5975 10.2684 11.9555 9.80813 11.6054C9.34783 11.2553 8.67906 11.3297 8.31439 11.7716L9.98131 13.0394ZM8.74903 17.9662C8.58114 17.4258 7.98884 17.1186 7.42609 17.2798C6.86336 17.4409 6.54327 18.0096 6.71116 18.5498L8.74903 17.9662ZM8.31439 21.5064C8.67906 21.9483 9.34783 22.0227 9.80813 21.6727C10.2684 21.3226 10.346 20.6805 9.98131 20.2387L8.31439 21.5064ZM25.2885 18.5511C25.4564 18.0109 25.1363 17.4423 24.5736 17.2812C24.0108 17.12 23.4185 17.4272 23.2506 17.9675L25.2885 18.5511ZM22.0183 20.2401C21.6537 20.6819 21.7312 21.324 22.1916 21.674C22.6518 22.0241 23.3207 21.9497 23.6853 21.5077L22.0183 20.2401ZM23.2506 15.3132C23.4185 15.8534 24.0108 16.1607 24.5736 15.9996C25.1363 15.8385 25.4564 15.2698 25.2885 14.7296L23.2506 15.3132ZM23.6853 11.773C23.3207 11.3311 22.6518 11.2566 22.1916 11.6067C21.7312 11.9568 21.6537 12.5988 22.0183 13.0407L23.6853 11.773ZM14.0088 25.5568C14.5715 25.718 15.1638 25.4107 15.3317 24.8705C15.4995 24.3303 15.1794 23.7616 14.6167 23.6005L14.0088 25.5568ZM12.2495 22.4175C11.7892 22.0674 11.1204 22.1418 10.7558 22.5838C10.3911 23.0256 10.4686 23.6677 10.9289 24.0178L12.2495 22.4175ZM17.3816 23.6005C16.8187 23.7616 16.4988 24.3303 16.6666 24.8705C16.8345 25.4107 17.4268 25.718 17.9895 25.5568L17.3816 23.6005ZM21.0693 24.0178C21.5296 23.6677 21.6072 23.0256 21.2425 22.5838C20.8779 22.1418 20.209 22.0674 19.7488 22.4175L21.0693 24.0178ZM17.9909 7.72256C17.4282 7.56139 16.8359 7.86867 16.668 8.40889C16.5002 8.94913 16.8202 9.51773 17.383 9.67891L17.9909 7.72256ZM19.7502 10.8619C20.2104 11.212 20.8793 11.1376 21.244 10.6956C21.6086 10.2538 21.5311 9.61174 21.0707 9.26165L19.7502 10.8619ZM14.6181 9.67891C15.1808 9.51773 15.5009 8.94913 15.3331 8.40889C15.1652 7.86867 14.5729 7.56139 14.0102 7.72256L14.6181 9.67891ZM10.9303 9.26165C10.47 9.61174 10.3925 10.2538 10.7572 10.6956C11.1218 11.1376 11.7906 11.212 12.2509 10.8619L10.9303 9.26165ZM8.74903 15.3119C9.00567 14.4861 9.42388 13.7148 9.98131 13.0394L8.31439 11.7716C7.58916 12.6504 7.04506 13.6538 6.71116 14.7282L8.74903 15.3119ZM6.71116 18.5498C7.04506 19.6242 7.58916 20.6275 8.31439 21.5064L9.98131 20.2387C9.42388 19.5632 9.00567 18.7919 8.74903 17.9662L6.71116 18.5498ZM23.2506 17.9675C22.994 18.7933 22.5758 19.5646 22.0183 20.2401L23.6853 21.5077C24.4105 20.6289 24.9546 19.6255 25.2885 18.5511L23.2506 17.9675ZM25.2885 14.7296C24.9546 13.6552 24.4105 12.6518 23.6853 11.773L22.0183 13.0407C22.5758 13.7162 22.994 14.4875 23.2506 15.3132L25.2885 14.7296ZM14.6167 23.6005C13.7565 23.3541 12.9531 22.9526 12.2495 22.4175L10.9289 24.0178C11.8443 24.7139 12.8896 25.2363 14.0088 25.5568L14.6167 23.6005ZM17.9895 25.5568C19.1087 25.2363 20.1539 24.7139 21.0693 24.0178L19.7488 22.4175C19.0452 22.9526 18.2417 23.3541 17.3816 23.6005L17.9895 25.5568ZM17.383 9.67891C18.2432 9.92528 19.0466 10.3268 19.7502 10.8619L21.0707 9.26165C20.1553 8.56544 19.1101 8.0431 17.9909 7.72256L17.383 9.67891ZM14.0102 7.72256C12.891 8.0431 11.8458 8.56544 10.9303 9.26165L12.2509 10.8619C12.9545 10.3268 13.758 9.92528 14.6181 9.67891L14.0102 7.72256Z" fill="#7332D6"/>
</svg>
