<svg xmlns="http://www.w3.org/2000/svg" width="32" height="32" viewBox="0 0 32 32" fill="none">
  <path d="M16.0013 10.6663C14.5285 10.6663 13.3346 9.47243 13.3346 7.99967C13.3346 6.52692 14.5285 5.33301 16.0013 5.33301C17.4741 5.33301 18.668 6.52692 18.668 7.99967C18.668 9.47243 17.4741 10.6663 16.0013 10.6663Z" fill="#FCFAFF"/>
  <path d="M16.0013 18.6663C14.5285 18.6663 13.3346 17.4724 13.3346 15.9997C13.3346 14.5269 14.5285 13.333 16.0013 13.333C17.4741 13.333 18.668 14.5269 18.668 15.9997C18.668 17.4724 17.4741 18.6663 16.0013 18.6663Z" fill="#FCFAFF"/>
  <path d="M16.0013 26.6663C14.5285 26.6663 13.3346 25.4724 13.3346 23.9997C13.3346 22.5269 14.5285 21.333 16.0013 21.333C17.4741 21.333 18.668 22.5269 18.668 23.9997C18.668 25.4724 17.4741 26.6663 16.0013 26.6663Z" fill="#FCFAFF"/>
</svg>