<svg width="32" height="32" viewBox="0 0 32 32" fill="none" xmlns="http://www.w3.org/2000/svg">
<g clip-path="url(#clip0_12940_81475)">
<path d="M28 0H4C1.79086 0 0 1.79086 0 4V28C0 30.2091 1.79086 32 4 32H28C30.2091 32 32 30.2091 32 28V4C32 1.79086 30.2091 0 28 0Z" fill="#7332D6"/>
<path d="M7.05157 11.8285C7.05157 11.8285 7.08179 9.03921 9.8652 7.6084C10.7019 7.17818 11.6329 6.96484 12.5736 6.96484H20.2436C20.5099 6.96484 20.7754 6.99418 21.0347 7.05521C21.0483 7.05847 21.0622 7.06173 21.0765 7.06529C23.3591 7.62321 24.9562 9.68277 24.9562 12.0327V15.457C24.9562 16.8416 24.5271 18.1977 23.7028 19.3106C23.6809 19.3403 23.6587 19.3699 23.6359 19.3992C22.5834 20.7696 20.9393 21.5554 19.2113 21.5554H11.1221V25.0579L7.05127 25.06V11.8283L7.05157 11.8285Z" fill="white"/>
<path d="M11.2701 19.1046C11.217 19.1609 11.1228 19.1245 11.1228 19.0471V12.8664C11.1228 12.8664 11.1459 11.5191 12.2627 10.9849C12.5275 10.8581 12.8197 10.7988 13.1133 10.7988H19.063C19.4837 10.7988 19.8982 10.9185 20.2458 11.1559C20.4816 11.3168 20.7175 11.5493 20.8935 11.8848C21.0541 12.1905 21.1314 12.5333 21.1314 12.8788V15.619C21.1314 16.0622 21.0238 16.5005 20.8055 16.8862C20.4751 17.4699 19.8147 18.0966 18.5 18.1135L13.2843 18.1606C13.2843 18.1606 12.1732 18.1467 11.2704 19.1049L11.2701 19.1046Z" fill="#7332D6"/>
</g>
<defs>
<clipPath id="clip0_12940_81475">
<rect width="32" height="32" fill="white"/>
</clipPath>
</defs>
</svg>
