<svg width="44" height="44" viewBox="0 0 44 44" fill="none" xmlns="http://www.w3.org/2000/svg">
<rect width="44" height="44" rx="22" fill="white"/>
<path d="M23.1636 17.1348C23.3581 17.7929 23.7174 18.3802 24.1935 18.8492L20.8366 20.8634C20.6421 20.2053 20.2828 19.6179 19.8066 19.149L23.1636 17.1348Z" fill="#1D2939"/>
<path d="M19.8066 24.8492L23.1636 26.8634C23.3581 26.2053 23.7173 25.6179 24.1935 25.1489L20.8366 23.1348C20.6421 23.7928 20.2828 24.3802 19.8066 24.8492Z" fill="#1D2939"/>
<path fill-rule="evenodd" clip-rule="evenodd" d="M27 18C28.1046 18 29 17.1046 29 16C29 14.8954 28.1046 14 27 14C25.8954 14 25 14.8954 25 16C25 17.1046 25.8954 18 27 18ZM31 16C31 18.2091 29.2091 20 27 20C24.7909 20 23 18.2091 23 16C23 13.7909 24.7909 12 27 12C29.2091 12 31 13.7909 31 16Z" fill="#1D2939"/>
<path fill-rule="evenodd" clip-rule="evenodd" d="M27 30C28.1046 30 29 29.1046 29 28C29 26.8954 28.1046 26 27 26C25.8954 26 25 26.8954 25 28C25 29.1046 25.8954 30 27 30ZM31 28C31 30.2091 29.2091 32 27 32C24.7909 32 23 30.2091 23 28C23 25.7909 24.7909 24 27 24C29.2091 24 31 25.7909 31 28Z" fill="#1D2939"/>
<path fill-rule="evenodd" clip-rule="evenodd" d="M17 24C18.1046 24 19 23.1046 19 22C19 20.8954 18.1046 20 17 20C15.8954 20 15 20.8954 15 22C15 23.1046 15.8954 24 17 24ZM21 22C21 24.2091 19.2091 26 17 26C14.7909 26 13 24.2091 13 22C13 19.7909 14.7909 18 17 18C19.2091 18 21 19.7909 21 22Z" fill="#1D2939"/>
</svg>
