<svg width="32" height="32" viewBox="0 0 32 32" fill="none" xmlns="http://www.w3.org/2000/svg">
<path d="M31.2847 14.5547L29.8047 13.4455C29.1655 12.9413 28.9302 12.0672 29.2329 11.3278L29.9394 9.61354C30.3768 8.5043 29.6703 7.29416 28.4931 7.1261L26.6428 6.89069C25.8354 6.78987 25.1964 6.1512 25.0953 5.34436L24.8597 3.49557C24.6915 2.31899 23.4804 1.61329 22.3703 2.05032L20.6548 2.75632C19.9147 3.05878 19.0401 2.82361 18.5354 2.18492L17.3917 0.705879C16.6852 -0.235293 15.2388 -0.235293 14.5323 0.705879L13.4559 2.21842C12.9514 2.85713 12.0766 3.0923 11.3366 2.78981L9.62103 2.05056C8.51092 1.61352 7.29984 2.3195 7.13165 3.49581L6.89606 5.3446C6.79516 6.15138 6.15599 6.78985 5.34852 6.89093L3.49829 7.12634C2.32079 7.29445 1.61454 8.50454 2.05192 9.61378L2.75846 11.328C3.06117 12.0675 2.82581 12.9414 2.18662 13.4457L0.706428 14.5885C-0.235476 15.2945 -0.235476 16.7397 0.706428 17.4457L2.22014 18.5546C2.85935 19.0587 3.09471 19.9328 2.79198 20.6722L2.05216 22.3865C1.61477 23.4957 2.3213 24.7058 3.49853 24.8739L5.34876 25.1093C6.15617 25.2101 6.79514 25.8488 6.8963 26.6556L7.13189 28.5044C7.30013 29.681 8.51116 30.3867 9.62127 29.9497L11.3368 29.2437C12.0769 28.9412 12.9515 29.1764 13.4562 29.8151L14.5998 31.2941C15.3064 32.2353 16.7528 32.2353 17.4593 31.2941L18.603 29.8151C19.1075 29.1764 19.9823 28.9412 20.7223 29.2437L22.4379 29.9497C23.548 30.3867 24.7591 29.6807 24.9273 28.5044L25.1629 26.6556C25.2638 25.8489 25.9029 25.2104 26.7104 25.1093L28.5606 24.8739C29.7381 24.7058 30.4444 23.4957 30.007 22.3865L29.3005 20.6722C28.9978 19.9328 29.2331 19.0589 29.8723 18.5546L31.3525 17.4118C32.2268 16.706 32.2268 15.2941 31.2847 14.5547L31.2847 14.5547ZM21.832 14.1849L15.7432 20.2689C15.4068 20.6052 14.9696 20.773 14.4986 20.773C14.0277 20.773 13.5903 20.6049 13.2541 20.2689L10.1928 17.2101C9.52007 16.5379 9.52007 15.4286 10.1928 14.7564C10.8655 14.0842 11.9757 14.0842 12.6484 14.7564L14.4648 16.5714L19.3763 11.731C20.049 11.0588 21.1592 11.0588 21.8319 11.731C22.5047 12.4032 22.5047 13.5125 21.8319 14.1849H21.832Z" fill="#FCFAFF"/>
</svg>
