<svg width="32" height="32" viewBox="0 0 32 32" fill="none" xmlns="http://www.w3.org/2000/svg">
<g clip-path="url(#clip0_12547_75948)">
<path d="M27.2801 15.9887C27.2801 15.9647 27.2801 15.938 27.2801 15.91C27.2801 13.6567 26.6041 11.562 25.4455 9.81536L25.4708 9.85669L9.7948 25.51C11.5228 26.67 13.6481 27.3607 15.9361 27.3607H15.9708H16.0081C17.5841 27.3607 19.0828 27.0274 20.4361 26.4287L20.3668 26.4567C24.4655 24.7034 27.2841 20.7047 27.2841 16.0474C27.2841 16.0274 27.2841 16.0074 27.2841 15.9874V15.99L27.2801 15.9887ZM6.51213 22.2047L22.2095 6.52869C20.4895 5.34336 18.3615 4.63536 16.0668 4.63536C16.0335 4.63536 16.0001 4.63536 15.9681 4.63536H15.9735C15.9481 4.63536 15.9188 4.63536 15.8881 4.63536C13.8268 4.63536 11.8988 5.19936 10.2468 6.18069L10.2975 6.15269C6.90547 8.16603 4.6668 11.8114 4.6668 15.978C4.6668 18.2927 5.35747 20.4474 6.54413 22.2447L6.51747 22.202L6.51213 22.2047ZM31.9335 15.9887V16.0354C31.9335 18.2727 31.4668 20.3994 30.6255 22.326L30.6655 22.2247C28.2095 28.038 22.5561 32.042 15.9668 32.042C9.37747 32.042 3.72413 28.0367 1.30813 22.3287L1.26946 22.2247C0.468132 20.386 0.00146484 18.2447 0.00146484 15.9927C0.00146484 13.7407 0.468132 11.5994 1.30946 9.65803L1.26946 9.76069C3.72547 3.94736 9.3788 -0.0566406 15.9681 -0.0566406C22.5575 -0.0566406 28.2108 3.94869 30.6268 9.65669L30.6655 9.76069C31.4668 11.5807 31.9348 13.7034 31.9348 15.9354V15.99V15.9874L31.9335 15.9887Z" fill="#FF6B63"/>
</g>
<defs>
<clipPath id="clip0_12547_75948">
<rect width="32" height="32" fill="white"/>
</clipPath>
</defs>
</svg>
