<svg width="229" height="118" viewBox="0 0 229 118" fill="none" xmlns="http://www.w3.org/2000/svg">
<rect width="229" height="118" rx="19" fill="#2EE6A6" fill-opacity="0.67"/>
<path d="M24.384 16.88V18.368H21.424V28H19.6V18.368H16.624V16.88H24.384ZM25.6233 23.552C25.6233 22.6667 25.8046 21.8827 26.1673 21.2C26.5406 20.5173 27.0419 19.9893 27.6713 19.616C28.3113 19.232 29.0153 19.04 29.7833 19.04C30.4766 19.04 31.0793 19.1787 31.5913 19.456C32.1139 19.7227 32.5299 20.0587 32.8393 20.464V19.184H34.6793V28H32.8393V26.688C32.5299 27.104 32.1086 27.4507 31.5753 27.728C31.0419 28.0053 30.4339 28.144 29.7513 28.144C28.9939 28.144 28.3006 27.952 27.6713 27.568C27.0419 27.1733 26.5406 26.6293 26.1673 25.936C25.8046 25.232 25.6233 24.4373 25.6233 23.552ZM32.8393 23.584C32.8393 22.976 32.7113 22.448 32.4553 22C32.2099 21.552 31.8846 21.2107 31.4793 20.976C31.0739 20.7413 30.6366 20.624 30.1673 20.624C29.6979 20.624 29.2606 20.7413 28.8553 20.976C28.4499 21.2 28.1193 21.536 27.8633 21.984C27.6179 22.4213 27.4953 22.944 27.4953 23.552C27.4953 24.16 27.6179 24.6933 27.8633 25.152C28.1193 25.6107 28.4499 25.9627 28.8553 26.208C29.2713 26.4427 29.7086 26.56 30.1673 26.56C30.6366 26.56 31.0739 26.4427 31.4793 26.208C31.8846 25.9733 32.2099 25.632 32.4553 25.184C32.7113 24.7253 32.8393 24.192 32.8393 23.584ZM40.627 19.04C41.3097 19.04 41.9123 19.1787 42.435 19.456C42.9683 19.7227 43.3843 20.0587 43.683 20.464V19.184H45.523V28.144C45.523 28.9547 45.3523 29.6747 45.011 30.304C44.6697 30.944 44.1737 31.4453 43.523 31.808C42.883 32.1707 42.115 32.352 41.219 32.352C40.0243 32.352 39.0323 32.0693 38.243 31.504C37.4537 30.9493 37.0057 30.192 36.899 29.232H38.707C38.8457 29.6907 39.139 30.0587 39.587 30.336C40.0457 30.624 40.5897 30.768 41.219 30.768C41.955 30.768 42.547 30.544 42.995 30.096C43.4537 29.648 43.683 28.9973 43.683 28.144V26.672C43.3737 27.088 42.9523 27.44 42.419 27.728C41.8963 28.0053 41.299 28.144 40.627 28.144C39.859 28.144 39.155 27.952 38.515 27.568C37.8857 27.1733 37.3843 26.6293 37.011 25.936C36.6483 25.232 36.467 24.4373 36.467 23.552C36.467 22.6667 36.6483 21.8827 37.011 21.2C37.3843 20.5173 37.8857 19.9893 38.515 19.616C39.155 19.232 39.859 19.04 40.627 19.04ZM43.683 23.584C43.683 22.976 43.555 22.448 43.299 22C43.0537 21.552 42.7283 21.2107 42.323 20.976C41.9177 20.7413 41.4803 20.624 41.011 20.624C40.5417 20.624 40.1043 20.7413 39.699 20.976C39.2937 21.2 38.963 21.536 38.707 21.984C38.4617 22.4213 38.339 22.944 38.339 23.552C38.339 24.16 38.4617 24.6933 38.707 25.152C38.963 25.6107 39.2937 25.9627 39.699 26.208C40.115 26.4427 40.5523 26.56 41.011 26.56C41.4803 26.56 41.9177 26.4427 42.323 26.208C42.7283 25.9733 43.0537 25.632 43.299 25.184C43.555 24.7253 43.683 24.192 43.683 23.584Z" fill="#081219"/>
<rect x="16" y="42" width="83" height="31" rx="15.5" fill="#C6A7F5"/>
<path d="M33.896 56.004L33.452 58.08H35.036V59.28H33.2L32.72 61.5H31.412L31.892 59.28H29.54L29.06 61.5H27.752L28.232 59.28H26.372V58.08H28.484L28.928 56.004H27.08V54.804H29.18L29.648 52.62H30.956L30.488 54.804H32.84L33.308 52.62H34.616L34.148 54.804H35.744V56.004H33.896ZM32.588 56.004H30.236L29.792 58.08H32.144L32.588 56.004ZM36.9088 57.312C36.9088 56.496 37.0968 55.764 37.4728 55.116C37.8568 54.468 38.3728 53.964 39.0208 53.604C39.6768 53.236 40.3928 53.052 41.1688 53.052C42.0568 53.052 42.8448 53.272 43.5328 53.712C44.2288 54.144 44.7328 54.76 45.0448 55.56H43.4008C43.1848 55.12 42.8848 54.792 42.5008 54.576C42.1168 54.36 41.6728 54.252 41.1688 54.252C40.6168 54.252 40.1248 54.376 39.6928 54.624C39.2608 54.872 38.9208 55.228 38.6728 55.692C38.4328 56.156 38.3128 56.696 38.3128 57.312C38.3128 57.928 38.4328 58.468 38.6728 58.932C38.9208 59.396 39.2608 59.756 39.6928 60.012C40.1248 60.26 40.6168 60.384 41.1688 60.384C41.6728 60.384 42.1168 60.276 42.5008 60.06C42.8848 59.844 43.1848 59.516 43.4008 59.076H45.0448C44.7328 59.876 44.2288 60.492 43.5328 60.924C42.8448 61.356 42.0568 61.572 41.1688 61.572C40.3848 61.572 39.6688 61.392 39.0208 61.032C38.3728 60.664 37.8568 60.156 37.4728 59.508C37.0968 58.86 36.9088 58.128 36.9088 57.312ZM49.5141 61.608C48.8901 61.608 48.3261 61.468 47.8221 61.188C47.3181 60.9 46.9221 60.5 46.6341 59.988C46.3461 59.468 46.2021 58.868 46.2021 58.188C46.2021 57.516 46.3501 56.92 46.6461 56.4C46.9421 55.88 47.3461 55.48 47.8581 55.2C48.3701 54.92 48.9421 54.78 49.5741 54.78C50.2061 54.78 50.7781 54.92 51.2901 55.2C51.8021 55.48 52.2061 55.88 52.5021 56.4C52.7981 56.92 52.9461 57.516 52.9461 58.188C52.9461 58.86 52.7941 59.456 52.4901 59.976C52.1861 60.496 51.7701 60.9 51.2421 61.188C50.7221 61.468 50.1461 61.608 49.5141 61.608ZM49.5141 60.42C49.8661 60.42 50.1941 60.336 50.4981 60.168C50.8101 60 51.0621 59.748 51.2541 59.412C51.4461 59.076 51.5421 58.668 51.5421 58.188C51.5421 57.708 51.4501 57.304 51.2661 56.976C51.0821 56.64 50.8381 56.388 50.5341 56.22C50.2301 56.052 49.9021 55.968 49.5501 55.968C49.1981 55.968 48.8701 56.052 48.5661 56.22C48.2701 56.388 48.0341 56.64 47.8581 56.976C47.6821 57.304 47.5941 57.708 47.5941 58.188C47.5941 58.9 47.7741 59.452 48.1341 59.844C48.5021 60.228 48.9621 60.42 49.5141 60.42ZM55.6664 52.62V61.5H54.2984V52.62H55.6664ZM58.8305 52.62V61.5H57.4625V52.62H58.8305ZM66.2998 60.276L68.1718 54.888H69.6237L67.1038 61.5H65.4718L62.9638 54.888H64.4277L66.2998 60.276ZM71.3538 54.012C71.1058 54.012 70.8978 53.928 70.7298 53.76C70.5618 53.592 70.4778 53.384 70.4778 53.136C70.4778 52.888 70.5618 52.68 70.7298 52.512C70.8978 52.344 71.1058 52.26 71.3538 52.26C71.5938 52.26 71.7978 52.344 71.9658 52.512C72.1338 52.68 72.2178 52.888 72.2178 53.136C72.2178 53.384 72.1338 53.592 71.9658 53.76C71.7978 53.928 71.5938 54.012 71.3538 54.012ZM72.0258 54.888V61.5H70.6578V54.888H72.0258ZM75.1899 55.872C75.4219 55.552 75.7379 55.292 76.1379 55.092C76.5459 54.884 76.9979 54.78 77.4939 54.78C78.0779 54.78 78.6059 54.92 79.0779 55.2C79.5499 55.48 79.9219 55.88 80.1939 56.4C80.4659 56.912 80.6019 57.5 80.6019 58.164C80.6019 58.828 80.4659 59.424 80.1939 59.952C79.9219 60.472 79.5459 60.88 79.0659 61.176C78.5939 61.464 78.0699 61.608 77.4939 61.608C76.9819 61.608 76.5259 61.508 76.1259 61.308C75.7339 61.108 75.4219 60.852 75.1899 60.54V61.5H73.8219V52.62H75.1899V55.872ZM79.2099 58.164C79.2099 57.708 79.1139 57.316 78.9219 56.988C78.7379 56.652 78.4899 56.4 78.1779 56.232C77.8739 56.056 77.5459 55.968 77.1939 55.968C76.8499 55.968 76.5219 56.056 76.2099 56.232C75.9059 56.408 75.6579 56.664 75.4659 57C75.2819 57.336 75.1899 57.732 75.1899 58.188C75.1899 58.644 75.2819 59.044 75.4659 59.388C75.6579 59.724 75.9059 59.98 76.2099 60.156C76.5219 60.332 76.8499 60.42 77.1939 60.42C77.5459 60.42 77.8739 60.332 78.1779 60.156C78.4899 59.972 78.7379 59.708 78.9219 59.364C79.1139 59.02 79.2099 58.62 79.2099 58.164ZM88.0147 58.032C88.0147 58.28 87.9987 58.504 87.9667 58.704H82.9147C82.9547 59.232 83.1507 59.656 83.5027 59.976C83.8547 60.296 84.2867 60.456 84.7987 60.456C85.5347 60.456 86.0547 60.148 86.3587 59.532H87.8347C87.6347 60.14 87.2707 60.64 86.7427 61.032C86.2227 61.416 85.5747 61.608 84.7987 61.608C84.1667 61.608 83.5987 61.468 83.0947 61.188C82.5987 60.9 82.2067 60.5 81.9187 59.988C81.6387 59.468 81.4987 58.868 81.4987 58.188C81.4987 57.508 81.6347 56.912 81.9067 56.4C82.1867 55.88 82.5747 55.48 83.0707 55.2C83.5747 54.92 84.1507 54.78 84.7987 54.78C85.4227 54.78 85.9787 54.916 86.4667 55.188C86.9547 55.46 87.3347 55.844 87.6067 56.34C87.8787 56.828 88.0147 57.392 88.0147 58.032ZM86.5867 57.6C86.5787 57.096 86.3987 56.692 86.0467 56.388C85.6947 56.084 85.2587 55.932 84.7387 55.932C84.2667 55.932 83.8627 56.084 83.5267 56.388C83.1907 56.684 82.9907 57.088 82.9267 57.6H86.5867Z" fill="#081219"/>
<rect x="104" y="42" width="90" height="31" rx="15.5" fill="#C6A7F5"/>
<path d="M121.896 56.004L121.452 58.08H123.036V59.28H121.2L120.72 61.5H119.412L119.892 59.28H117.54L117.06 61.5H115.752L116.232 59.28H114.372V58.08H116.484L116.928 56.004H115.08V54.804H117.18L117.648 52.62H118.956L118.488 54.804H120.84L121.308 52.62H122.616L122.148 54.804H123.744V56.004H121.896ZM120.588 56.004H118.236L117.792 58.08H120.144L120.588 56.004ZM131.401 55.56C131.185 55.144 130.885 54.832 130.501 54.624C130.117 54.408 129.673 54.3 129.169 54.3C128.617 54.3 128.125 54.424 127.693 54.672C127.261 54.92 126.921 55.272 126.673 55.728C126.433 56.184 126.313 56.712 126.313 57.312C126.313 57.912 126.433 58.444 126.673 58.908C126.921 59.364 127.261 59.716 127.693 59.964C128.125 60.212 128.617 60.336 129.169 60.336C129.913 60.336 130.517 60.128 130.981 59.712C131.445 59.296 131.729 58.732 131.833 58.02H128.701V56.928H133.297V57.996C133.209 58.644 132.977 59.24 132.601 59.784C132.233 60.328 131.749 60.764 131.149 61.092C130.557 61.412 129.897 61.572 129.169 61.572C128.385 61.572 127.669 61.392 127.021 61.032C126.373 60.664 125.857 60.156 125.473 59.508C125.097 58.86 124.909 58.128 124.909 57.312C124.909 56.496 125.097 55.764 125.473 55.116C125.857 54.468 126.373 53.964 127.021 53.604C127.677 53.236 128.393 53.052 129.169 53.052C130.057 53.052 130.845 53.272 131.533 53.712C132.229 54.144 132.733 54.76 133.045 55.56H131.401ZM137.982 54.78C138.502 54.78 138.966 54.888 139.374 55.104C139.79 55.32 140.114 55.64 140.346 56.064C140.578 56.488 140.694 57 140.694 57.6V61.5H139.338V57.804C139.338 57.212 139.19 56.76 138.894 56.448C138.598 56.128 138.194 55.968 137.682 55.968C137.17 55.968 136.762 56.128 136.458 56.448C136.162 56.76 136.014 57.212 136.014 57.804V61.5H134.646V54.888H136.014V55.644C136.238 55.372 136.522 55.16 136.866 55.008C137.218 54.856 137.59 54.78 137.982 54.78ZM148.499 58.032C148.499 58.28 148.483 58.504 148.451 58.704H143.399C143.439 59.232 143.635 59.656 143.987 59.976C144.339 60.296 144.771 60.456 145.283 60.456C146.019 60.456 146.539 60.148 146.843 59.532H148.319C148.119 60.14 147.755 60.64 147.227 61.032C146.707 61.416 146.059 61.608 145.283 61.608C144.651 61.608 144.083 61.468 143.579 61.188C143.083 60.9 142.691 60.5 142.403 59.988C142.123 59.468 141.983 58.868 141.983 58.188C141.983 57.508 142.119 56.912 142.391 56.4C142.671 55.88 143.059 55.48 143.555 55.2C144.059 54.92 144.635 54.78 145.283 54.78C145.907 54.78 146.463 54.916 146.951 55.188C147.439 55.46 147.819 55.844 148.091 56.34C148.363 56.828 148.499 57.392 148.499 58.032ZM147.071 57.6C147.063 57.096 146.883 56.692 146.531 56.388C146.179 56.084 145.743 55.932 145.223 55.932C144.751 55.932 144.347 56.084 144.011 56.388C143.675 56.684 143.475 57.088 143.411 57.6H147.071ZM151.057 60.384H154.057V61.5H149.473V60.384L152.485 56.004H149.473V54.888H154.057V56.004L151.057 60.384ZM161.167 60.276L163.039 54.888H164.491L161.971 61.5H160.339L157.831 54.888H159.295L161.167 60.276ZM166.221 54.012C165.973 54.012 165.765 53.928 165.597 53.76C165.429 53.592 165.345 53.384 165.345 53.136C165.345 52.888 165.429 52.68 165.597 52.512C165.765 52.344 165.973 52.26 166.221 52.26C166.461 52.26 166.665 52.344 166.833 52.512C167.001 52.68 167.085 52.888 167.085 53.136C167.085 53.384 167.001 53.592 166.833 53.76C166.665 53.928 166.461 54.012 166.221 54.012ZM166.893 54.888V61.5H165.525V54.888H166.893ZM170.057 55.872C170.289 55.552 170.605 55.292 171.005 55.092C171.413 54.884 171.865 54.78 172.361 54.78C172.945 54.78 173.473 54.92 173.945 55.2C174.417 55.48 174.789 55.88 175.061 56.4C175.333 56.912 175.469 57.5 175.469 58.164C175.469 58.828 175.333 59.424 175.061 59.952C174.789 60.472 174.413 60.88 173.933 61.176C173.461 61.464 172.937 61.608 172.361 61.608C171.849 61.608 171.393 61.508 170.993 61.308C170.601 61.108 170.289 60.852 170.057 60.54V61.5H168.689V52.62H170.057V55.872ZM174.077 58.164C174.077 57.708 173.981 57.316 173.789 56.988C173.605 56.652 173.357 56.4 173.045 56.232C172.741 56.056 172.413 55.968 172.061 55.968C171.717 55.968 171.389 56.056 171.077 56.232C170.773 56.408 170.525 56.664 170.333 57C170.149 57.336 170.057 57.732 170.057 58.188C170.057 58.644 170.149 59.044 170.333 59.388C170.525 59.724 170.773 59.98 171.077 60.156C171.389 60.332 171.717 60.42 172.061 60.42C172.413 60.42 172.741 60.332 173.045 60.156C173.357 59.972 173.605 59.708 173.789 59.364C173.981 59.02 174.077 58.62 174.077 58.164ZM182.882 58.032C182.882 58.28 182.866 58.504 182.834 58.704H177.782C177.822 59.232 178.018 59.656 178.37 59.976C178.722 60.296 179.154 60.456 179.666 60.456C180.402 60.456 180.922 60.148 181.226 59.532H182.702C182.502 60.14 182.138 60.64 181.61 61.032C181.09 61.416 180.442 61.608 179.666 61.608C179.034 61.608 178.466 61.468 177.962 61.188C177.466 60.9 177.074 60.5 176.786 59.988C176.506 59.468 176.366 58.868 176.366 58.188C176.366 57.508 176.502 56.912 176.774 56.4C177.054 55.88 177.442 55.48 177.938 55.2C178.442 54.92 179.018 54.78 179.666 54.78C180.29 54.78 180.846 54.916 181.334 55.188C181.822 55.46 182.202 55.844 182.474 56.34C182.746 56.828 182.882 57.392 182.882 58.032ZM181.454 57.6C181.446 57.096 181.266 56.692 180.914 56.388C180.562 56.084 180.126 55.932 179.606 55.932C179.134 55.932 178.73 56.084 178.394 56.388C178.058 56.684 177.858 57.088 177.794 57.6H181.454Z" fill="#081219"/>
<rect x="16" y="77" width="57" height="31" rx="15.5" fill="#C6A7F5"/>
<path d="M33.896 91.004L33.452 93.08H35.036V94.28H33.2L32.72 96.5H31.412L31.892 94.28H29.54L29.06 96.5H27.752L28.232 94.28H26.372V93.08H28.484L28.928 91.004H27.08V89.804H29.18L29.648 87.62H30.956L30.488 89.804H32.84L33.308 87.62H34.616L34.148 89.804H35.744V91.004H33.896ZM32.588 91.004H30.236L29.792 93.08H32.144L32.588 91.004ZM39.9208 95.276L41.7928 89.888H43.2448L40.7248 96.5H39.0928L36.5848 89.888H38.0488L39.9208 95.276ZM44.9749 89.012C44.7269 89.012 44.5189 88.928 44.3509 88.76C44.1829 88.592 44.0989 88.384 44.0989 88.136C44.0989 87.888 44.1829 87.68 44.3509 87.512C44.5189 87.344 44.7269 87.26 44.9749 87.26C45.2149 87.26 45.4189 87.344 45.5869 87.512C45.7549 87.68 45.8389 87.888 45.8389 88.136C45.8389 88.384 45.7549 88.592 45.5869 88.76C45.4189 88.928 45.2149 89.012 44.9749 89.012ZM45.6469 89.888V96.5H44.2789V89.888H45.6469ZM48.811 90.872C49.043 90.552 49.359 90.292 49.759 90.092C50.167 89.884 50.619 89.78 51.115 89.78C51.699 89.78 52.227 89.92 52.699 90.2C53.171 90.48 53.543 90.88 53.815 91.4C54.087 91.912 54.223 92.5 54.223 93.164C54.223 93.828 54.087 94.424 53.815 94.952C53.543 95.472 53.167 95.88 52.687 96.176C52.215 96.464 51.691 96.608 51.115 96.608C50.603 96.608 50.147 96.508 49.747 96.308C49.355 96.108 49.043 95.852 48.811 95.54V96.5H47.443V87.62H48.811V90.872ZM52.831 93.164C52.831 92.708 52.735 92.316 52.543 91.988C52.359 91.652 52.111 91.4 51.799 91.232C51.495 91.056 51.167 90.968 50.815 90.968C50.471 90.968 50.143 91.056 49.831 91.232C49.527 91.408 49.279 91.664 49.087 92C48.903 92.336 48.811 92.732 48.811 93.188C48.811 93.644 48.903 94.044 49.087 94.388C49.279 94.724 49.527 94.98 49.831 95.156C50.143 95.332 50.471 95.42 50.815 95.42C51.167 95.42 51.495 95.332 51.799 95.156C52.111 94.972 52.359 94.708 52.543 94.364C52.735 94.02 52.831 93.62 52.831 93.164ZM61.6358 93.032C61.6358 93.28 61.6198 93.504 61.5878 93.704H56.5358C56.5758 94.232 56.7718 94.656 57.1238 94.976C57.4758 95.296 57.9078 95.456 58.4198 95.456C59.1558 95.456 59.6758 95.148 59.9798 94.532H61.4558C61.2558 95.14 60.8918 95.64 60.3638 96.032C59.8438 96.416 59.1958 96.608 58.4198 96.608C57.7878 96.608 57.2198 96.468 56.7158 96.188C56.2198 95.9 55.8278 95.5 55.5398 94.988C55.2598 94.468 55.1198 93.868 55.1198 93.188C55.1198 92.508 55.2558 91.912 55.5278 91.4C55.8078 90.88 56.1958 90.48 56.6918 90.2C57.1958 89.92 57.7718 89.78 58.4198 89.78C59.0438 89.78 59.5998 89.916 60.0878 90.188C60.5758 90.46 60.9558 90.844 61.2278 91.34C61.4998 91.828 61.6358 92.392 61.6358 93.032ZM60.2078 92.6C60.1998 92.096 60.0198 91.692 59.6678 91.388C59.3158 91.084 58.8798 90.932 58.3598 90.932C57.8878 90.932 57.4838 91.084 57.1478 91.388C56.8118 91.684 56.6118 92.088 56.5478 92.6H60.2078Z" fill="#081219"/>
</svg>
